<svg xmlns="http://www.w3.org/2000/svg" width="512" height="512" viewBox="0 0 512 512">
  <rect width="512" height="512" fill="#644234" rx="100" ry="100"/>
  <path d="M339 146.5c-5.5 0-10 4.5-10 10v20c0 5.5 4.5 10 10 10h20c5.5 0 10-4.5 10-10v-20c0-5.5-4.5-10-10-10h-20zm-186 0c-5.5 0-10 4.5-10 10v20c0 5.5 4.5 10 10 10h20c5.5 0 10-4.5 10-10v-20c0-5.5-4.5-10-10-10h-20zm93 40c-60.8 0-110 49.2-110 110 0 60.8 49.2 110 110 110 60.8 0 110-49.2 110-110 0-60.8-49.2-110-110-110zm0 30c44.2 0 80 35.8 80 80 0 44.2-35.8 80-80 80-44.2 0-80-35.8-80-80 0-44.2 35.8-80 80-80z" fill="#F9F5F3"/>
  <path d="M246 316.5c-11 0-20 9-20 20v10c0 11 9 20 20 20 11 0 20-9 20-20v-10c0-11-9-20-20-20z" fill="#F9F5F3"/>
  <path d="M246 216.5c-33.1 0-60 26.9-60 60 0 33.1 26.9 60 60 60 33.1 0 60-26.9 60-60 0-33.1-26.9-60-60-60zm0 20c22.1 0 40 17.9 40 40 0 22.1-17.9 40-40 40-22.1 0-40-17.9-40-40 0-22.1 17.9-40 40-40z" fill="#815F51"/>
  <path d="M246 246.5c-16.6 0-30 13.4-30 30 0 16.6 13.4 30 30 30 16.6 0 30-13.4 30-30 0-16.6-13.4-30-30-30zm0 10c11 0 20 9 20 20 0 11-9 20-20 20-11 0-20-9-20-20 0-11 9-20 20-20z" fill="#D3B6AB"/>
</svg>